<?xml version="1.0" encoding="UTF-8"?>
<svg xmlns="http://www.w3.org/2000/svg" width="2400" height="3000" viewBox="0 0 2400 3000" font-family="Georgia, 'Times New Roman', serif">
<rect width="2400" height="3000" fill="#ffffff"/>
<line x1="75" y1="416" x2="75" y2="442" stroke="#999" stroke-width="1"/>
<line x1="75" y1="2558" x2="75" y2="2584" stroke="#999" stroke-width="1"/>
<line x1="825" y1="416" x2="825" y2="442" stroke="#999" stroke-width="1"/>
<line x1="825" y1="2558" x2="825" y2="2584" stroke="#999" stroke-width="1"/>
<line x1="1575" y1="416" x2="1575" y2="442" stroke="#999" stroke-width="1"/>
<line x1="1575" y1="2558" x2="1575" y2="2584" stroke="#999" stroke-width="1"/>
<line x1="2325" y1="416" x2="2325" y2="442" stroke="#999" stroke-width="1"/>
<line x1="2325" y1="2558" x2="2325" y2="2584" stroke="#999" stroke-width="1"/>
<line x1="41" y1="450" x2="67" y2="450" stroke="#999" stroke-width="1"/>
<line x1="2333" y1="450" x2="2359" y2="450" stroke="#999" stroke-width="1"/>
<line x1="41" y1="1500" x2="67" y2="1500" stroke="#999" stroke-width="1"/>
<line x1="2333" y1="1500" x2="2359" y2="1500" stroke="#999" stroke-width="1"/>
<line x1="41" y1="2550" x2="67" y2="2550" stroke="#999" stroke-width="1"/>
<line x1="2333" y1="2550" x2="2359" y2="2550" stroke="#999" stroke-width="1"/>
<g transform="translate(75 450)">  <defs><clipPath id="clip-8-0"><rect x="6" y="6" width="738" height="1038" rx="36"/></clipPath></defs>
  <rect x="6" y="6" width="738" height="1038" rx="36" fill="#fbfaf7" stroke="#1a1a1a" stroke-width="6"/>
  <g clip-path="url(#clip-8-0)">
    <rect x="0" y="0" width="750" height="1050" fill="#a83333" opacity="0.09"/>
    <g opacity="0.20"><polygon points="375,688 543,382.24 207,382.24" fill="#a83333"/></g>
    <rect x="0" y="0" width="750" height="150" fill="#a83333"/>
    <polygon points="86,117 128,40.56 44,40.56" fill="#ffffff"/>
    
    <text x="150" y="68" fill="#fff" font-size="34" font-weight="bold" letter-spacing="2">DOWNGRADE</text>
    <text x="716" y="58" fill="#fff" font-size="30" font-weight="bold" text-anchor="end">x1</text>
    <text x="375" y="230" fill="#141414" font-size="48" font-weight="bold" text-anchor="middle"><tspan x="375" y="230">Temporal Sickness</tspan></text>
    <line x1="48" y1="294" x2="702" y2="294" stroke="#cfc9bb" stroke-width="2"/>
    <text x="48" y="322" fill="#2a2a2a" font-size="31"><tspan x="48" y="322">When this lands on you: skip your next</tspan><tspan x="48" y="363">two Fish actions.</tspan></text>
    <text x="375" y="745" fill="#6a6258" font-size="27" font-style="italic" text-anchor="middle"><tspan x="375" y="745">“The jumps add up. You're shaking and you</tspan><tspan x="375" y="780">can't aim.”</tspan></text>
    <rect x="48" y="852" width="654" height="150" rx="16" fill="#a833331a" stroke="#a83333" stroke-width="2.5"/>
    <text x="70" y="888" fill="#a83333" font-size="22" font-weight="bold" letter-spacing="2">SCORING</text>
    <text x="70" y="922" fill="#222" font-size="26"><tspan x="70" y="922">No points -- an affliction that lands on</tspan><tspan x="70" y="956">you.</tspan></text>
  </g></g>
<g transform="translate(825 450)">  <defs><clipPath id="clip-8-1"><rect x="6" y="6" width="738" height="1038" rx="36"/></clipPath></defs>
  <rect x="6" y="6" width="738" height="1038" rx="36" fill="#fbfaf7" stroke="#1a1a1a" stroke-width="6"/>
  <g clip-path="url(#clip-8-1)">
    <rect x="0" y="0" width="750" height="1050" fill="#a83333" opacity="0.09"/>
    <g opacity="0.20"><polygon points="375,688 543,382.24 207,382.24" fill="#a83333"/></g>
    <rect x="0" y="0" width="750" height="150" fill="#a83333"/>
    <polygon points="86,117 128,40.56 44,40.56" fill="#ffffff"/>
    
    <text x="150" y="68" fill="#fff" font-size="34" font-weight="bold" letter-spacing="2">DOWNGRADE</text>
    <text x="716" y="58" fill="#fff" font-size="30" font-weight="bold" text-anchor="end">x1</text>
    <text x="375" y="230" fill="#141414" font-size="48" font-weight="bold" text-anchor="middle"><tspan x="375" y="230">Glitched Targeting</tspan></text>
    <line x1="48" y1="294" x2="702" y2="294" stroke="#cfc9bb" stroke-width="2"/>
    <text x="48" y="322" fill="#2a2a2a" font-size="31"><tspan x="48" y="322">When this lands on you: your next</tspan><tspan x="48" y="363">planted Terminator surfaces and takes</tspan><tspan x="48" y="404">nothing.</tspan></text>
    <text x="375" y="745" fill="#6a6258" font-size="27" font-style="italic" text-anchor="middle"><tspan x="375" y="745">“Bad firmware -- it'll grab a fistful of</tspan><tspan x="375" y="780">nothing.”</tspan></text>
    <rect x="48" y="852" width="654" height="150" rx="16" fill="#a833331a" stroke="#a83333" stroke-width="2.5"/>
    <text x="70" y="888" fill="#a83333" font-size="22" font-weight="bold" letter-spacing="2">SCORING</text>
    <text x="70" y="922" fill="#222" font-size="26"><tspan x="70" y="922">No points -- an affliction that lands on</tspan><tspan x="70" y="956">you.</tspan></text>
  </g></g>
<g transform="translate(1575 450)">  <defs><clipPath id="clip-8-2"><rect x="6" y="6" width="738" height="1038" rx="36"/></clipPath></defs>
  <rect x="6" y="6" width="738" height="1038" rx="36" fill="#fbfaf7" stroke="#1a1a1a" stroke-width="6"/>
  <g clip-path="url(#clip-8-2)">
    <rect x="0" y="0" width="750" height="1050" fill="#a83333" opacity="0.09"/>
    <g opacity="0.20"><polygon points="375,688 543,382.24 207,382.24" fill="#a83333"/></g>
    <rect x="0" y="0" width="750" height="150" fill="#a83333"/>
    <polygon points="86,117 128,40.56 44,40.56" fill="#ffffff"/>
    
    <text x="150" y="68" fill="#fff" font-size="34" font-weight="bold" letter-spacing="2">DOWNGRADE</text>
    <text x="716" y="58" fill="#fff" font-size="30" font-weight="bold" text-anchor="end">x1</text>
    <text x="375" y="230" fill="#141414" font-size="48" font-weight="bold" text-anchor="middle"><tspan x="375" y="230">Static Cling</tspan></text>
    <line x1="48" y1="294" x2="702" y2="294" stroke="#cfc9bb" stroke-width="2"/>
    <text x="48" y="322" fill="#2a2a2a" font-size="31"><tspan x="48" y="322">When this lands on you: you may peek but</tspan><tspan x="48" y="363">not plant for your next two turns.</tspan></text>
    <text x="375" y="745" fill="#6a6258" font-size="27" font-style="italic" text-anchor="middle"><tspan x="375" y="745">“The field won't let go. You can look but</tspan><tspan x="375" y="780">you can't touch.”</tspan></text>
    <rect x="48" y="852" width="654" height="150" rx="16" fill="#a833331a" stroke="#a83333" stroke-width="2.5"/>
    <text x="70" y="888" fill="#a83333" font-size="22" font-weight="bold" letter-spacing="2">SCORING</text>
    <text x="70" y="922" fill="#222" font-size="26"><tspan x="70" y="922">No points -- an affliction that lands on</tspan><tspan x="70" y="956">you.</tspan></text>
  </g></g>
<g transform="translate(75 1500)">  <defs><clipPath id="clip-8-3"><rect x="6" y="6" width="738" height="1038" rx="36"/></clipPath></defs>
  <rect x="6" y="6" width="738" height="1038" rx="36" fill="#fbfaf7" stroke="#1a1a1a" stroke-width="6"/>
  <g clip-path="url(#clip-8-3)">
    <rect x="0" y="0" width="750" height="1050" fill="#9c5a22" opacity="0.09"/>
    <g opacity="0.20"><ellipse cx="375" cy="520" rx="168" ry="117.6" transform="rotate(-18 375 520)" fill="#9c5a22"/></g>
    <rect x="0" y="0" width="750" height="150" fill="#9c5a22"/>
    <ellipse cx="86" cy="75" rx="42" ry="29.4" transform="rotate(-18 86 75)" fill="#ffffff"/>
    
    <text x="150" y="68" fill="#fff" font-size="34" font-weight="bold" letter-spacing="2">HOT POTATO</text>
    <text x="716" y="58" fill="#fff" font-size="30" font-weight="bold" text-anchor="end">x1</text>
    <text x="375" y="230" fill="#141414" font-size="48" font-weight="bold" text-anchor="middle"><tspan x="375" y="230">A Potato</tspan></text>
    <line x1="48" y1="294" x2="702" y2="294" stroke="#cfc9bb" stroke-width="2"/>
    <text x="48" y="322" fill="#2a2a2a" font-size="31"><tspan x="48" y="322">Worth -9. It is, literally, a potato.</tspan><tspan x="48" y="363">Playable from hand: bury it anywhere in</tspan><tspan x="48" y="404">the Future via a cut.</tspan></text>
    <text x="375" y="745" fill="#6a6258" font-size="27" font-style="italic" text-anchor="middle"><tspan x="375" y="745">“The displacement field reached across</tspan><tspan x="375" y="780">spacetime and grabbed... a potato. Hot.”</tspan></text>
    <rect x="48" y="852" width="654" height="150" rx="16" fill="#9c5a221a" stroke="#9c5a22" stroke-width="2.5"/>
    <text x="70" y="888" fill="#9c5a22" font-size="22" font-weight="bold" letter-spacing="2">SCORING</text>
    <text x="70" y="922" fill="#222" font-size="26"><tspan x="70" y="922">-9 at game end if still in hand. Playable:</tspan><tspan x="70" y="956">bury it in the Future.</tspan></text>
  </g></g>
<g transform="translate(825 1500)">  <defs><clipPath id="clip-8-4"><rect x="6" y="6" width="738" height="1038" rx="36"/></clipPath></defs>
  <rect x="6" y="6" width="738" height="1038" rx="36" fill="#fbfaf7" stroke="#1a1a1a" stroke-width="6"/>
  <g clip-path="url(#clip-8-4)">
    <rect x="0" y="0" width="750" height="1050" fill="#9c5a22" opacity="0.09"/>
    <g opacity="0.20"><ellipse cx="375" cy="520" rx="168" ry="117.6" transform="rotate(-18 375 520)" fill="#9c5a22"/></g>
    <rect x="0" y="0" width="750" height="150" fill="#9c5a22"/>
    <ellipse cx="86" cy="75" rx="42" ry="29.4" transform="rotate(-18 86 75)" fill="#ffffff"/>
    
    <text x="150" y="68" fill="#fff" font-size="34" font-weight="bold" letter-spacing="2">HOT POTATO</text>
    <text x="716" y="58" fill="#fff" font-size="30" font-weight="bold" text-anchor="end">x1</text>
    <text x="375" y="230" fill="#141414" font-size="48" font-weight="bold" text-anchor="middle"><tspan x="375" y="230">A Time-Travel</tspan><tspan x="375" y="282">Primer</tspan></text>
    <line x1="48" y1="346" x2="702" y2="346" stroke="#cfc9bb" stroke-width="2"/>
    <text x="48" y="374" fill="#2a2a2a" font-size="31"><tspan x="48" y="374">Worth -3. Playable from hand: bury it</tspan><tspan x="48" y="415">anywhere in the Future via a cut.</tspan></text>
    <text x="375" y="745" fill="#6a6258" font-size="27" font-style="italic" text-anchor="middle"><tspan x="375" y="745">“Explains everything and clarifies</tspan><tspan x="375" y="780">nothing. (Primer, 2004.)”</tspan></text>
    <rect x="48" y="852" width="654" height="150" rx="16" fill="#9c5a221a" stroke="#9c5a22" stroke-width="2.5"/>
    <text x="70" y="888" fill="#9c5a22" font-size="22" font-weight="bold" letter-spacing="2">SCORING</text>
    <text x="70" y="922" fill="#222" font-size="26"><tspan x="70" y="922">-3 at game end if still in hand. Playable:</tspan><tspan x="70" y="956">bury it in the Future.</tspan></text>
  </g></g>
<g transform="translate(1575 1500)">  <defs><clipPath id="clip-8-5"><rect x="6" y="6" width="738" height="1038" rx="36"/></clipPath></defs>
  <rect x="6" y="6" width="738" height="1038" rx="36" fill="#fbfaf7" stroke="#1a1a1a" stroke-width="6"/>
  <g clip-path="url(#clip-8-5)">
    <rect x="0" y="0" width="750" height="1050" fill="#9c5a22" opacity="0.09"/>
    <g opacity="0.20"><ellipse cx="375" cy="520" rx="168" ry="117.6" transform="rotate(-18 375 520)" fill="#9c5a22"/></g>
    <rect x="0" y="0" width="750" height="150" fill="#9c5a22"/>
    <ellipse cx="86" cy="75" rx="42" ry="29.4" transform="rotate(-18 86 75)" fill="#ffffff"/>
    
    <text x="150" y="68" fill="#fff" font-size="34" font-weight="bold" letter-spacing="2">HOT POTATO</text>
    <text x="716" y="58" fill="#fff" font-size="30" font-weight="bold" text-anchor="end">x1</text>
    <text x="375" y="230" fill="#141414" font-size="48" font-weight="bold" text-anchor="middle"><tspan x="375" y="230">Box of Spare</tspan><tspan x="375" y="282">Pinball Machine</tspan><tspan x="375" y="334">Parts</tspan></text>
    <line x1="48" y1="398" x2="702" y2="398" stroke="#cfc9bb" stroke-width="2"/>
    <text x="48" y="426" fill="#2a2a2a" font-size="31"><tspan x="48" y="426">Worth -1. Playable from hand: bury it</tspan><tspan x="48" y="467">anywhere in the Future via a cut.</tspan></text>
    <text x="375" y="745" fill="#6a6258" font-size="27" font-style="italic" text-anchor="middle"><tspan x="375" y="745">“The displacement field grabbed the wrong</tspan><tspan x="375" y="780">crate. (Back to the Future.)”</tspan></text>
    <rect x="48" y="852" width="654" height="150" rx="16" fill="#9c5a221a" stroke="#9c5a22" stroke-width="2.5"/>
    <text x="70" y="888" fill="#9c5a22" font-size="22" font-weight="bold" letter-spacing="2">SCORING</text>
    <text x="70" y="922" fill="#222" font-size="26"><tspan x="70" y="922">-1 at game end if still in hand. Playable:</tspan><tspan x="70" y="956">bury it in the Future.</tspan></text>
  </g></g>
</svg>