<?xml version="1.0" encoding="UTF-8"?>
<svg xmlns="http://www.w3.org/2000/svg" width="2400" height="3000" viewBox="0 0 2400 3000" font-family="Georgia, 'Times New Roman', serif">
<rect width="2400" height="3000" fill="#ffffff"/>
<line x1="75" y1="416" x2="75" y2="442" stroke="#999" stroke-width="1"/>
<line x1="75" y1="2558" x2="75" y2="2584" stroke="#999" stroke-width="1"/>
<line x1="825" y1="416" x2="825" y2="442" stroke="#999" stroke-width="1"/>
<line x1="825" y1="2558" x2="825" y2="2584" stroke="#999" stroke-width="1"/>
<line x1="1575" y1="416" x2="1575" y2="442" stroke="#999" stroke-width="1"/>
<line x1="1575" y1="2558" x2="1575" y2="2584" stroke="#999" stroke-width="1"/>
<line x1="2325" y1="416" x2="2325" y2="442" stroke="#999" stroke-width="1"/>
<line x1="2325" y1="2558" x2="2325" y2="2584" stroke="#999" stroke-width="1"/>
<line x1="41" y1="450" x2="67" y2="450" stroke="#999" stroke-width="1"/>
<line x1="2333" y1="450" x2="2359" y2="450" stroke="#999" stroke-width="1"/>
<line x1="41" y1="1500" x2="67" y2="1500" stroke="#999" stroke-width="1"/>
<line x1="2333" y1="1500" x2="2359" y2="1500" stroke="#999" stroke-width="1"/>
<line x1="41" y1="2550" x2="67" y2="2550" stroke="#999" stroke-width="1"/>
<line x1="2333" y1="2550" x2="2359" y2="2550" stroke="#999" stroke-width="1"/>
<g transform="translate(75 450)">  <defs><clipPath id="clip-6-0"><rect x="6" y="6" width="738" height="1038" rx="36"/></clipPath></defs>
  <rect x="6" y="6" width="738" height="1038" rx="36" fill="#fbfaf7" stroke="#1a1a1a" stroke-width="6"/>
  <g clip-path="url(#clip-6-0)">
    <rect x="0" y="0" width="750" height="1050" fill="#2f6fb0" opacity="0.09"/>
    <g opacity="0.20"><polygon points="375,352 543,657.76 207,657.76" fill="#2f6fb0"/></g>
    <rect x="0" y="0" width="750" height="150" fill="#2f6fb0"/>
    <polygon points="86,33 128,109.44 44,109.44" fill="#ffffff"/>
    <circle cx="150" cy="118" r="13" fill="#fff"/>
    <text x="185" y="68" fill="#fff" font-size="34" font-weight="bold" letter-spacing="2">UPGRADE  ·  ONE-SHOT</text>
    <text x="716" y="58" fill="#fff" font-size="30" font-weight="bold" text-anchor="end">x4</text>
    <text x="375" y="230" fill="#141414" font-size="48" font-weight="bold" text-anchor="middle"><tspan x="375" y="230">Temporal Splice</tspan></text>
    <line x1="48" y1="294" x2="702" y2="294" stroke="#cfc9bb" stroke-width="2"/>
    <text x="48" y="322" fill="#2a2a2a" font-size="31"><tspan x="48" y="322">On your Fish: after you peek your sight</tspan><tspan x="48" y="363">band, REORDER those cards however you</tspan><tspan x="48" y="404">like. Weapon: set your hero directly</tspan><tspan x="48" y="445">above your sidekick (reunion), or your</tspan><tspan x="48" y="486">sidekick atop your own next draw.</tspan><tspan x="48" y="527">Defense: star-cross a rival pair, or</tspan><tspan x="48" y="568">pull your sidekick off a terminator.</tspan></text>
    <text x="375" y="745" fill="#6a6258" font-size="27" font-style="italic" text-anchor="middle"><tspan x="375" y="745">“Cut the moment open and re-splice it the</tspan><tspan x="375" y="780">way it needs to go.”</tspan></text>
    <rect x="48" y="852" width="654" height="150" rx="16" fill="#2f6fb01a" stroke="#2f6fb0" stroke-width="2.5"/>
    <text x="70" y="888" fill="#2f6fb0" font-size="22" font-weight="bold" letter-spacing="2">SCORING</text>
    <text x="70" y="922" fill="#222" font-size="26"><tspan x="70" y="922">No points -- a ONE-SHOT ability.</tspan></text>
  </g></g>
<g transform="translate(825 450)">  <defs><clipPath id="clip-6-1"><rect x="6" y="6" width="738" height="1038" rx="36"/></clipPath></defs>
  <rect x="6" y="6" width="738" height="1038" rx="36" fill="#fbfaf7" stroke="#1a1a1a" stroke-width="6"/>
  <g clip-path="url(#clip-6-1)">
    <rect x="0" y="0" width="750" height="1050" fill="#2f6fb0" opacity="0.09"/>
    <g opacity="0.20"><polygon points="375,352 543,657.76 207,657.76" fill="#2f6fb0"/></g>
    <rect x="0" y="0" width="750" height="150" fill="#2f6fb0"/>
    <polygon points="86,33 128,109.44 44,109.44" fill="#ffffff"/>
    <circle cx="150" cy="118" r="13" fill="#fff"/>
    <text x="185" y="68" fill="#fff" font-size="34" font-weight="bold" letter-spacing="2">UPGRADE  ·  ONE-SHOT</text>
    <text x="716" y="58" fill="#fff" font-size="30" font-weight="bold" text-anchor="end">x4</text>
    <text x="375" y="230" fill="#141414" font-size="48" font-weight="bold" text-anchor="middle"><tspan x="375" y="230">Temporal Splice</tspan></text>
    <line x1="48" y1="294" x2="702" y2="294" stroke="#cfc9bb" stroke-width="2"/>
    <text x="48" y="322" fill="#2a2a2a" font-size="31"><tspan x="48" y="322">On your Fish: after you peek your sight</tspan><tspan x="48" y="363">band, REORDER those cards however you</tspan><tspan x="48" y="404">like. Weapon: set your hero directly</tspan><tspan x="48" y="445">above your sidekick (reunion), or your</tspan><tspan x="48" y="486">sidekick atop your own next draw.</tspan><tspan x="48" y="527">Defense: star-cross a rival pair, or</tspan><tspan x="48" y="568">pull your sidekick off a terminator.</tspan></text>
    <text x="375" y="745" fill="#6a6258" font-size="27" font-style="italic" text-anchor="middle"><tspan x="375" y="745">“Cut the moment open and re-splice it the</tspan><tspan x="375" y="780">way it needs to go.”</tspan></text>
    <rect x="48" y="852" width="654" height="150" rx="16" fill="#2f6fb01a" stroke="#2f6fb0" stroke-width="2.5"/>
    <text x="70" y="888" fill="#2f6fb0" font-size="22" font-weight="bold" letter-spacing="2">SCORING</text>
    <text x="70" y="922" fill="#222" font-size="26"><tspan x="70" y="922">No points -- a ONE-SHOT ability.</tspan></text>
  </g></g>
<g transform="translate(1575 450)">  <defs><clipPath id="clip-6-2"><rect x="6" y="6" width="738" height="1038" rx="36"/></clipPath></defs>
  <rect x="6" y="6" width="738" height="1038" rx="36" fill="#fbfaf7" stroke="#1a1a1a" stroke-width="6"/>
  <g clip-path="url(#clip-6-2)">
    <rect x="0" y="0" width="750" height="1050" fill="#2f6fb0" opacity="0.09"/>
    <g opacity="0.20"><polygon points="375,352 543,657.76 207,657.76" fill="#2f6fb0"/></g>
    <rect x="0" y="0" width="750" height="150" fill="#2f6fb0"/>
    <polygon points="86,33 128,109.44 44,109.44" fill="#ffffff"/>
    <circle cx="150" cy="118" r="13" fill="#fff"/>
    <text x="185" y="68" fill="#fff" font-size="34" font-weight="bold" letter-spacing="2">UPGRADE  ·  ONE-SHOT</text>
    <text x="716" y="58" fill="#fff" font-size="30" font-weight="bold" text-anchor="end">x4</text>
    <text x="375" y="230" fill="#141414" font-size="48" font-weight="bold" text-anchor="middle"><tspan x="375" y="230">Temporal Splice</tspan></text>
    <line x1="48" y1="294" x2="702" y2="294" stroke="#cfc9bb" stroke-width="2"/>
    <text x="48" y="322" fill="#2a2a2a" font-size="31"><tspan x="48" y="322">On your Fish: after you peek your sight</tspan><tspan x="48" y="363">band, REORDER those cards however you</tspan><tspan x="48" y="404">like. Weapon: set your hero directly</tspan><tspan x="48" y="445">above your sidekick (reunion), or your</tspan><tspan x="48" y="486">sidekick atop your own next draw.</tspan><tspan x="48" y="527">Defense: star-cross a rival pair, or</tspan><tspan x="48" y="568">pull your sidekick off a terminator.</tspan></text>
    <text x="375" y="745" fill="#6a6258" font-size="27" font-style="italic" text-anchor="middle"><tspan x="375" y="745">“Cut the moment open and re-splice it the</tspan><tspan x="375" y="780">way it needs to go.”</tspan></text>
    <rect x="48" y="852" width="654" height="150" rx="16" fill="#2f6fb01a" stroke="#2f6fb0" stroke-width="2.5"/>
    <text x="70" y="888" fill="#2f6fb0" font-size="22" font-weight="bold" letter-spacing="2">SCORING</text>
    <text x="70" y="922" fill="#222" font-size="26"><tspan x="70" y="922">No points -- a ONE-SHOT ability.</tspan></text>
  </g></g>
<g transform="translate(75 1500)">  <defs><clipPath id="clip-6-3"><rect x="6" y="6" width="738" height="1038" rx="36"/></clipPath></defs>
  <rect x="6" y="6" width="738" height="1038" rx="36" fill="#fbfaf7" stroke="#1a1a1a" stroke-width="6"/>
  <g clip-path="url(#clip-6-3)">
    <rect x="0" y="0" width="750" height="1050" fill="#2f6fb0" opacity="0.09"/>
    <g opacity="0.20"><polygon points="375,352 543,657.76 207,657.76" fill="#2f6fb0"/></g>
    <rect x="0" y="0" width="750" height="150" fill="#2f6fb0"/>
    <polygon points="86,33 128,109.44 44,109.44" fill="#ffffff"/>
    <circle cx="150" cy="118" r="13" fill="#fff"/>
    <text x="185" y="68" fill="#fff" font-size="34" font-weight="bold" letter-spacing="2">UPGRADE  ·  ONE-SHOT</text>
    <text x="716" y="58" fill="#fff" font-size="30" font-weight="bold" text-anchor="end">x4</text>
    <text x="375" y="230" fill="#141414" font-size="48" font-weight="bold" text-anchor="middle"><tspan x="375" y="230">Temporal Splice</tspan></text>
    <line x1="48" y1="294" x2="702" y2="294" stroke="#cfc9bb" stroke-width="2"/>
    <text x="48" y="322" fill="#2a2a2a" font-size="31"><tspan x="48" y="322">On your Fish: after you peek your sight</tspan><tspan x="48" y="363">band, REORDER those cards however you</tspan><tspan x="48" y="404">like. Weapon: set your hero directly</tspan><tspan x="48" y="445">above your sidekick (reunion), or your</tspan><tspan x="48" y="486">sidekick atop your own next draw.</tspan><tspan x="48" y="527">Defense: star-cross a rival pair, or</tspan><tspan x="48" y="568">pull your sidekick off a terminator.</tspan></text>
    <text x="375" y="745" fill="#6a6258" font-size="27" font-style="italic" text-anchor="middle"><tspan x="375" y="745">“Cut the moment open and re-splice it the</tspan><tspan x="375" y="780">way it needs to go.”</tspan></text>
    <rect x="48" y="852" width="654" height="150" rx="16" fill="#2f6fb01a" stroke="#2f6fb0" stroke-width="2.5"/>
    <text x="70" y="888" fill="#2f6fb0" font-size="22" font-weight="bold" letter-spacing="2">SCORING</text>
    <text x="70" y="922" fill="#222" font-size="26"><tspan x="70" y="922">No points -- a ONE-SHOT ability.</tspan></text>
  </g></g>
<g transform="translate(825 1500)">  <defs><clipPath id="clip-6-4"><rect x="6" y="6" width="738" height="1038" rx="36"/></clipPath></defs>
  <rect x="6" y="6" width="738" height="1038" rx="36" fill="#fbfaf7" stroke="#1a1a1a" stroke-width="6"/>
  <g clip-path="url(#clip-6-4)">
    <rect x="0" y="0" width="750" height="1050" fill="#2f6fb0" opacity="0.09"/>
    <g opacity="0.20"><polygon points="375,352 543,657.76 207,657.76" fill="#2f6fb0"/></g>
    <rect x="0" y="0" width="750" height="150" fill="#2f6fb0"/>
    <polygon points="86,33 128,109.44 44,109.44" fill="#ffffff"/>
    <circle cx="150" cy="118" r="13" fill="#fff"/>
    <text x="185" y="68" fill="#fff" font-size="34" font-weight="bold" letter-spacing="2">UPGRADE  ·  ONE-SHOT</text>
    <text x="716" y="58" fill="#fff" font-size="30" font-weight="bold" text-anchor="end">x1</text>
    <text x="375" y="230" fill="#141414" font-size="48" font-weight="bold" text-anchor="middle"><tspan x="375" y="230">The 13th Monkey</tspan></text>
    <line x1="48" y1="294" x2="702" y2="294" stroke="#cfc9bb" stroke-width="2"/>
    <text x="48" y="322" fill="#2a2a2a" font-size="31"><tspan x="48" y="322">REACTIVE: when any card surfaces (except</tspan><tspan x="48" y="363">a global -- those fire instantly), the</tspan><tspan x="48" y="404">holder may fling it to the bottom of the</tspan><tspan x="48" y="445">deck; the active player then flips</tspan><tspan x="48" y="486">again. On a Terminator only the TOP one</tspan><tspan x="48" y="527">goes -- the rest of the would-be convoy</tspan><tspan x="48" y="568">resolves normally. The clock does NOT</tspan><tspan x="48" y="609">advance, so a yeeted sidekick stays in</tspan><tspan x="48" y="650">play (saved for a reunion, or denied a</tspan><tspan x="48" y="691">rival).</tspan></text>
    <text x="375" y="745" fill="#6a6258" font-size="27" font-style="italic" text-anchor="middle"><tspan x="375" y="745">“You will be sent back. Involuntarily. (12</tspan><tspan x="375" y="780">Monkeys.)”</tspan></text>
    <rect x="48" y="852" width="654" height="150" rx="16" fill="#2f6fb01a" stroke="#2f6fb0" stroke-width="2.5"/>
    <text x="70" y="888" fill="#2f6fb0" font-size="22" font-weight="bold" letter-spacing="2">SCORING</text>
    <text x="70" y="922" fill="#222" font-size="26"><tspan x="70" y="922">No points -- a ONE-SHOT ability.</tspan></text>
  </g></g>
<g transform="translate(1575 1500)">  <defs><clipPath id="clip-6-5"><rect x="6" y="6" width="738" height="1038" rx="36"/></clipPath></defs>
  <rect x="6" y="6" width="738" height="1038" rx="36" fill="#fbfaf7" stroke="#1a1a1a" stroke-width="6"/>
  <g clip-path="url(#clip-6-5)">
    <rect x="0" y="0" width="750" height="1050" fill="#2f6fb0" opacity="0.09"/>
    <g opacity="0.20"><polygon points="375,352 543,657.76 207,657.76" fill="#2f6fb0"/></g>
    <rect x="0" y="0" width="750" height="150" fill="#2f6fb0"/>
    <polygon points="86,33 128,109.44 44,109.44" fill="#ffffff"/>
    <circle cx="150" cy="118" r="13" fill="#fff"/>
    <text x="185" y="68" fill="#fff" font-size="34" font-weight="bold" letter-spacing="2">UPGRADE  ·  ONE-SHOT</text>
    <text x="716" y="58" fill="#fff" font-size="30" font-weight="bold" text-anchor="end">x3</text>
    <text x="375" y="230" fill="#141414" font-size="48" font-weight="bold" text-anchor="middle"><tspan x="375" y="230">Hasta La Vista,</tspan><tspan x="375" y="282">Baby</tspan></text>
    <line x1="48" y1="346" x2="702" y2="346" stroke="#cfc9bb" stroke-width="2"/>
    <text x="48" y="374" fill="#2a2a2a" font-size="31"><tspan x="48" y="374">On your Fish: cut, peek a card, and</tspan><tspan x="48" y="415">DESTROY it outright (out of the game).</tspan><tspan x="48" y="456">Anything but a protectee, a hero, or the</tspan><tspan x="48" y="497">Timequake -- so you can vaporize a rival</tspan><tspan x="48" y="538">machine, John Connor, or a fat prize</tspan><tspan x="48" y="579">before someone banks it.</tspan></text>
    <text x="375" y="745" fill="#6a6258" font-size="27" font-style="italic" text-anchor="middle"><tspan x="375" y="745">“Hasta la vista, baby. (T2.)”</tspan></text>
    <rect x="48" y="852" width="654" height="150" rx="16" fill="#2f6fb01a" stroke="#2f6fb0" stroke-width="2.5"/>
    <text x="70" y="888" fill="#2f6fb0" font-size="22" font-weight="bold" letter-spacing="2">SCORING</text>
    <text x="70" y="922" fill="#222" font-size="26"><tspan x="70" y="922">No points -- a ONE-SHOT ability.</tspan></text>
  </g></g>
</svg>